<svg width="40" height="40" viewBox="0 0 40 40" fill="none" xmlns="http://www.w3.org/2000/svg">
<path d="M40 20C40 31.0457 31.0457 40 20 40C8.9543 40 0 31.0457 0 20C0 8.9543 8.9543 0 20 0C31.0457 0 40 8.9543 40 20Z" fill="white"/>
<path d="M31.6481 19.1166C32.1173 19.6053 32.1173 20.3954 31.6481 20.8841L28.0484 24.6341C27.8145 24.8779 27.5073 25.0004 27.2002 25.0004C26.893 25.0004 26.5858 24.8779 26.3519 24.6341C25.8827 24.1454 25.8827 23.3553 26.3519 22.8666L29.1032 20.0004L26.3519 17.1341C25.8827 16.6454 25.8827 15.8553 26.3519 15.3666C26.821 14.8778 27.5793 14.8778 28.0484 15.3666L31.6481 19.1166Z" fill="#357EFE"/>
<path d="M13.6481 17.1341L10.8968 20.0004L13.6481 22.8666C14.1173 23.3553 14.1173 24.1454 13.6481 24.6341C13.4142 24.8779 13.107 25.0004 12.7998 25.0004C12.4927 25.0004 12.1855 24.8779 11.9516 24.6341L8.35187 20.8841C7.88271 20.3954 7.88271 19.6053 8.35187 19.1166L11.9516 15.3666C12.4207 14.8778 13.179 14.8778 13.6481 15.3666C14.1173 15.8553 14.1173 16.6454 13.6481 17.1341Z" fill="#357EFE"/>
</svg>
